<?xml version="1.0" standalone="no"?>
<!DOCTYPE svg PUBLIC "-//W3C//DTD SVG 20010904//EN"
 "http://www.w3.org/TR/2001/REC-SVG-20010904/DTD/svg10.dtd">
<svg version="1.0" xmlns="http://www.w3.org/2000/svg"
 width="140.000000pt" height="140.000000pt" viewBox="0 0 140.000000 140.000000"
 preserveAspectRatio="xMidYMid meet">
<metadata>
Created by potrace 1.14, written by Peter Selinger 2001-2017
</metadata>
<g transform="translate(0.000000,140.000000) scale(0.100000,-0.100000)"
fill="#000000" stroke="none">
<path d="M866 1165 c-9 -13 -16 -29 -16 -34 0 -5 -6 -16 -12 -23 -7 -7 -19
-24 -26 -38 -35 -68 -40 -70 -117 -54 -38 8 -97 21 -130 29 -33 8 -71 16 -85
19 -14 2 -53 10 -87 17 -34 7 -65 11 -67 8 -3 -3 -1 -23 4 -44 7 -32 47 -234
75 -385 3 -14 9 -47 15 -75 16 -80 20 -102 47 -253 15 -78 30 -142 35 -142 5
0 7 4 4 8 -3 5 -7 35 -10 68 -3 32 -12 127 -21 209 -9 83 -18 183 -22 223 l-6
72 29 0 c31 1 134 9 174 15 14 2 45 4 70 4 l45 1 1 58 c1 44 12 82 48 167 26
60 49 112 52 115 7 6 -1 -50 -17 -117 -6 -27 -12 -56 -14 -66 -2 -10 -6 -26
-9 -35 -3 -9 -7 -28 -10 -42 -14 -82 -20 -102 -30 -106 -13 -4 -101 -12 -165
-13 l-44 -1 7 -97 c4 -53 8 -99 9 -102 3 -13 -15 -119 -39 -223 -31 -138 -26
-161 8 -42 67 226 81 269 89 275 5 3 47 13 94 24 47 10 88 21 89 24 2 3 7 44
10 91 4 47 9 101 11 120 2 19 7 69 11 110 3 41 8 89 10 105 9 81 14 155 11
155 -3 0 -12 -11 -21 -25z"/>
<path d="M900 1159 c0 -5 5 -7 12 -3 8 5 9 2 5 -10 -6 -16 8 -81 50 -225 10
-37 14 -77 10 -128 l-5 -75 57 7 c31 4 59 10 63 13 4 4 10 30 14 59 l6 52 -43
3 -44 3 -39 100 c-21 55 -42 109 -46 120 -17 41 -19 55 -9 55 5 0 13 -8 16
-17 4 -10 13 -24 20 -31 35 -35 83 -136 81 -168 -1 -18 0 -35 3 -38 6 -6 87
-11 92 -5 3 2 7 25 9 51 l5 47 -52 16 c-48 13 -60 23 -121 100 -66 82 -84 97
-84 74z"/>
<path d="M1030 707 c-3 -3 -29 -7 -59 -10 -29 -3 -56 -8 -59 -11 -6 -7 -11
-147 -5 -157 2 -6 152 36 159 44 1 1 5 27 9 57 4 30 8 60 8 65 2 10 -44 20
-53 12z"/>
<path d="M780 562 l-75 -17 -3 -69 c-3 -69 -4 -71 -93 -205 -92 -140 -80 -133
40 24 96 125 104 132 166 151 35 11 55 23 56 33 0 9 2 35 5 59 7 48 12 47 -96
24z"/>
<path d="M501 164 c0 -11 3 -14 6 -6 3 7 2 16 -1 19 -3 4 -6 -2 -5 -13z"/>
</g>
</svg>
